<?xml version="1.0" standalone="no"?>
<!DOCTYPE svg PUBLIC "-//W3C//DTD SVG 20010904//EN"
 "http://www.w3.org/TR/2001/REC-SVG-20010904/DTD/svg10.dtd">
<svg version="1.0" xmlns="http://www.w3.org/2000/svg"
 width="256.000000pt" height="256.000000pt" viewBox="0 0 256.000000 256.000000"
 preserveAspectRatio="xMidYMid meet">
<metadata>
Created by potrace 1.14, written by Peter Selinger 2001-2017
</metadata>
<g transform="translate(0.000000,256.000000) scale(0.100000,-0.100000)"
fill="#000000" stroke="none">
<path d="M274 2551 c-94 -23 -197 -105 -234 -186 -41 -89 -41 -96 -38 -1115
l3 -985 28 -59 c36 -72 105 -141 177 -175 l55 -26 995 -2 c1049 -3 1032 -4
1118 41 40 21 117 96 137 136 45 88 45 70 45 1100 0 1028 0 1012 -45 1099 -26
52 -96 115 -160 147 l-60 29 -995 2 c-547 0 -1009 -2 -1026 -6z"/>
</g>
</svg>
